<?xml version="1.0" encoding="UTF-8"?>
<svg id="Layer_2" data-name="Layer 2" xmlns="http://www.w3.org/2000/svg" viewBox="0 0 417.68 190.61">
  <defs>
    <style>
      .cls-1 {
        stroke-width: .57px;
      }

      .cls-1, .cls-2, .cls-3, .cls-4, .cls-5, .cls-6, .cls-7 {
        fill: none;
        stroke-linecap: round;
        stroke-linejoin: round;
      }

      .cls-1, .cls-6, .cls-7 {
        stroke: #dba529;
      }

      .cls-2 {
        stroke-width: 1.13px;
      }

      .cls-2, .cls-3, .cls-4, .cls-5 {
        stroke: #894f20;
      }

      .cls-3 {
        stroke-width: 1.89px;
      }

      .cls-4 {
        stroke-width: 2.83px;
      }

      .cls-5 {
        stroke-width: 1.32px;
      }

      .cls-8 {
        fill: #caa77d;
        stroke-width: 0px;
      }

      .cls-6 {
        stroke-width: .85px;
      }

      .cls-7 {
        stroke-width: .42px;
      }
    </style>
  </defs>
  <g id="svg1">
    <g id="layer6">
      <g id="g2">
        <g id="g1">
          <polygon id="polygon1" class="cls-5" points="66.83 132.55 12.91 101.98 .66 62.92 34.75 79.39 66.83 132.55"/>
          <polyline id="polyline1" class="cls-3" points="66.65 189.3 56.34 165.37 66.83 132.55"/>
          <polygon id="polygon2" class="cls-5" points="132.66 62.92 120.4 101.98 66.83 132.55 98.57 79.39 132.66 62.92"/>
          <polygon id="polygon3" class="cls-5" points="67.06 .66 90.4 50.02 66.83 132.55 76.07 50.54 67.06 30.82 57.2 50.53 66.83 132.55 43.71 50.02 67.06 .66"/>
          <polyline id="polyline3" class="cls-3" points="66.66 189.3 76.81 165.36 66.83 132.55"/>
        </g>
        <path id="text1" class="cls-8" d="M132.19,138.01h8.16v.53c-2.74.14-4.11,1.58-4.11,4.32,0,.59.07,1.39.21,2.43l5.41,39.23c.33,1.97.69,3.23,1.09,3.8.42.54,1.28.87,2.57.98v.49h-11.64v-.49c1.52.05,2.29-.7,2.29-2.25,0-.35-.07-1.04-.21-2.07l-5.27-38.04-18.56,42.86h-.35l-18.67-42.79-5.24,38.25c-.09.59-.14,1.25-.14,2,0,1.36.79,2.04,2.36,2.04v.49h-7.91v-.49c1.2,0,1.96-.15,2.29-.46.35-.3.62-.77.81-1.41.19-.66.33-1.38.42-2.18l5.91-41.84c-.96-2.32-1.92-3.71-2.88-4.18s-1.89-.7-2.78-.7v-.53h9.77l18.21,42.36,18.28-42.36ZM184.17,137.24c7.27,0,13.21,2.21,17.82,6.64,4.62,4.41,6.93,9.91,6.93,16.52,0,8.51-2.67,15.67-8.02,21.48s-12.43,8.72-21.27,8.72c-7.17,0-13.04-2.34-17.61-7.03s-6.86-10.31-6.86-16.87c0-4.43,1.1-8.98,3.3-13.64s5.52-8.46,9.95-11.39c4.43-2.95,9.68-4.43,15.75-4.43ZM183.96,187.87c3.56,0,7.08-.95,10.55-2.85,3.47-1.92,6.2-4.56,8.19-7.91s2.99-6.8,2.99-10.34c0-5.02-1.35-9.57-4.04-13.68-2.67-4.1-6.15-7.31-10.44-9.63-4.27-2.32-8.21-3.48-11.85-3.48-5.13,0-9.8,1.93-13.99,5.8-4.17,3.87-6.26,8.67-6.26,14.41,0,7.34,2.55,13.78,7.66,19.34s10.84,8.33,17.19,8.33ZM267.96,181.68v8.12h-49.11l40.18-49.82h-26.93c-2.23,0-3.76.29-4.61.88-.82.56-1.39,1.97-1.72,4.22h-.49l.28-7.07h42.61l-40.32,49.85h34.35c1.99,0,3.33-.41,4.01-1.23.7-.82,1.12-2.47,1.27-4.96h.49ZM306.48,165.96h-15.12l-7.84,19.58c-.54,1.41-.81,2.27-.81,2.6,0,.77.57,1.16,1.72,1.16v.49h-7.7v-.49c1.03,0,1.9-.25,2.6-.74.7-.52,1.48-1.83,2.32-3.94l18.77-47.39h.88l18.49,45.77c0,.23.47,1.35,1.41,3.34.96,1.97,2.41,2.95,4.36,2.95v.49h-12.09v-.49c1.1,0,1.65-.43,1.65-1.3,0-.59-.27-1.52-.81-2.81-.09-.09-.18-.25-.25-.46-.05-.23-.08-.35-.11-.35l-7.49-18.42ZM291.85,164.52h13.99l-7-17.65-7,17.65ZM352.37,138.01v.53c-.68-.07-1.44.04-2.29.32-.82.28-1.31.69-1.48,1.23-.14.54-.21,1.82-.21,3.83v39.76c0,2.16.08,3.48.25,3.97.19.47.53.87,1.02,1.2.52.3,1.42.46,2.71.46v.49h-13.82v-.49c1.73,0,2.81-.33,3.23-.98.42-.68.63-2.2.63-4.57v-39.37c0-2.46-.23-4.07-.7-4.82-.47-.77-1.52-1.11-3.16-1.02v-.53h13.82ZM360.8,138.01h14.84v.53c-1.62-.07-2.75.18-3.41.74-.66.54-.98,1.97-.98,4.29v19.86l30.76-23.1c.61-.42.91-.81.91-1.16,0-.42-.69-.63-2.07-.63v-.53h11.18v.53c-2.81.07-5.55,1.1-8.23,3.09l-26.79,20,26.72,20.32s.06.05.11.07c.05.02.08.06.11.11.05.02.09.04.14.04,3.52,2.62,6.23,4.48,8.16,5.55,1.95,1.05,3.76,1.58,5.45,1.58v.49h-17.61v-.49c1.57,0,2.36-.18,2.36-.53,0-.3-.64-.95-1.93-1.93l-29.25-22.25v19.23c0,2.25.15,3.63.46,4.15.33.52.75.89,1.27,1.12.54.21,1.41.28,2.6.21v.49h-14.77v-.49c1.97.09,3.2-.2,3.69-.88.52-.7.77-2.17.77-4.39v-40.18c0-2.3-.26-3.79-.77-4.46-.49-.68-1.72-.96-3.69-.84v-.53Z"/>
        <path id="path1-7" class="cls-4" d="M67.13,126.43l-9.6-75.61,9.83-19.6,8.99,19.9-9.22,75.3Z"/>
        <path id="path2" class="cls-1" d="M66.87,133.11l-10.59,32.32,10.35,23.86,10.12-23.93-9.88-32.25Z"/>
        <path id="path1" class="cls-6" d="M66.97,127.27l-9.48-76.04,9.83-19.6,8.99,19.43-9.34,76.2Z"/>
        <path id="path3" class="cls-2" d="M338.27,121.03l-.29,7.67,5.38,5.07.2-7.48-5.29-5.26Z"/>
        <path id="path3-73" class="cls-7" d="M338.29,121.07l-.29,7.7,5.4,5.09.2-7.51-5.31-5.28Z"/>
        <path id="path3-7" class="cls-2" d="M352.13,120.85l-5.57,5.28.3,7.39,5.38-5.21-.1-7.46Z"/>
        <path id="path3-73-2" class="cls-7" d="M352.08,120.78l-5.59,5.3.3,7.42,5.4-5.23-.11-7.49Z"/>
      </g>
    </g>
  </g>
</svg>